<svg xmlns="http://www.w3.org/2000/svg" width="512" height="512" viewBox="0 0 180 180">
  <rect x="0" y="0" width="180" height="180" rx="90" fill="#2d2b2b"></rect>
  <path d="M90 56 C68 68 50 70 38 66 M90 56 C112 68 130 70 142 66" fill="none" stroke="#e1ad66" stroke-width="2.5" stroke-linecap="round"></path>
  <path d="M90 56 C68 100 50 110 38 116 M90 56 C112 100 130 110 142 116" fill="none" stroke="#e1ad66" stroke-width="2.5" stroke-linecap="round"></path>
  <line x1="90" y1="56" x2="90" y2="118" stroke="#e1ad66" stroke-width="2.5" stroke-linecap="round"></line>
  <g stroke="#e1ad66" stroke-width="1.6" stroke-linecap="round">
    <circle cx="90" cy="44" r="9" fill="none"></circle>
    <line x1="90" y1="33" x2="90" y2="28"></line>
    <line x1="99.4" y1="38.6" x2="103.6" y2="36.1"></line>
    <line x1="99.4" y1="49.4" x2="103.6" y2="51.9"></line>
    <line x1="80.6" y1="38.6" x2="76.4" y2="36.1"></line>
    <line x1="80.6" y1="49.4" x2="76.4" y2="51.9"></line>
  </g>
</svg>